<svg width="151" height="146" viewBox="0 0 151 146" fill="none" xmlns="http://www.w3.org/2000/svg">
<mask id="mask0_251_6752" style="mask-type:luminance" maskUnits="userSpaceOnUse" x="0" y="0" width="79" height="77">
<path d="M0.0908203 0H78.0362V76.6272H0.0908203V0Z" fill="white"/>
</mask>
<g mask="url(#mask0_251_6752)">
<path d="M3.18925 74.8961C3.33891 74.4151 3.41115 73.9137 3.62274 73.4532C3.74659 73.1922 3.90657 72.9569 4.10783 72.7624C3.95818 73.1513 3.86529 73.5606 3.80852 73.9751C3.76723 74.2719 3.72595 74.5686 3.71047 74.8654C3.70015 75.024 3.70531 75.1929 3.76207 75.3412C3.80852 75.4743 3.91689 75.5868 3.93237 75.725C3.94785 75.8734 4.1388 75.9041 4.20072 75.812C4.22136 75.8017 4.23685 75.7864 4.24717 75.7608C5.38765 73.6016 6.58491 71.4628 7.64799 69.2678C8.61302 67.262 9.10327 65.2102 8.81944 62.9845C8.25178 58.5125 5.48055 54.7211 4.5052 50.3566C4.01494 48.1513 4.00462 45.8027 5.08318 43.7561C5.59408 42.7839 6.25979 41.9038 6.69844 40.8958C7.10613 39.9595 7.42092 38.9976 7.95762 38.1226C9.91348 34.9503 13.3607 33.0929 16.1113 30.6932C19.4657 27.7716 21.5764 23.7141 21.8809 19.283C22.2318 19.1705 22.5363 18.9453 22.7943 18.6895C23.0833 18.4081 23.4032 18.0499 23.589 17.6918C23.6716 17.5331 23.6819 17.3899 23.6406 17.2568C23.6458 17.2517 23.6509 17.2517 23.6561 17.2517C24.7914 16.2949 25.6068 15.0567 26.3035 13.7622C26.4222 13.537 26.5512 13.3068 26.6854 13.0714C26.7008 13.0714 26.7163 13.0765 26.7318 13.0765C27.3717 13.0509 28.0168 13.0151 28.5999 12.7337C29.3121 12.3909 29.9417 11.9457 30.69 11.6592C31.4021 11.388 32.1401 11.1987 32.8884 11.0503C33.6109 10.9019 34.3746 10.8508 35.0661 10.5642C36.4492 9.99118 37.5226 8.83993 38.8282 8.13383C39.4784 7.78589 40.2474 7.77054 40.8924 7.40214C41.3827 7.12073 41.7646 6.70116 42.0329 6.20996C42.0639 6.15879 42.0536 6.10763 42.0278 6.06669C45.3357 3.81024 49.33 2.57713 53.3604 2.63853C56.111 2.67946 58.81 3.25253 61.5451 3.47254C62.9023 3.57999 64.2647 3.58511 65.6168 3.42138C66.2722 3.33951 66.9276 3.22694 67.5933 3.21159C68.3106 3.19624 68.9763 3.33439 69.6472 3.56464C70.9528 4.00468 72.1552 4.06608 73.4454 3.53906C74.6168 3.05809 75.5973 2.24454 76.5262 1.40541C76.5211 1.88126 76.5262 2.36223 76.3611 2.80738C76.1856 3.26276 75.8399 3.63116 75.4735 3.94328C74.7768 4.54704 73.9511 5.01778 73.4608 5.82109C73.3989 5.92343 73.5021 6.07693 73.626 6.03088C74.0491 5.88249 74.4568 5.69829 74.8387 5.46804C75.0297 5.35548 75.2103 5.23268 75.4064 5.13034C75.6386 5.00754 75.8863 4.95126 76.1443 4.88986C76.7481 4.74659 77.2487 4.42936 77.6306 3.96886C77.4603 5.42199 75.3548 6.22019 74.2091 6.74209C73.4712 7.07468 72.7074 7.36633 71.9127 7.53518C71.9023 7.51471 71.8869 7.49936 71.8611 7.48401C71.0096 6.99793 70.1271 6.56813 69.126 6.55789C68.6047 6.55278 68.0887 6.58859 67.5675 6.55789C66.9895 6.52719 66.4115 6.45556 65.8387 6.38393C65.6529 6.36346 65.6529 6.65511 65.8387 6.67558C66.8708 6.80349 67.8771 6.87513 68.9144 6.84954C69.8691 6.82908 70.6844 7.17189 71.4947 7.61704C71.4637 7.62216 71.4327 7.63239 71.3966 7.63239C70.4006 7.77054 69.4253 7.60681 68.4499 7.39191C67.5365 7.19236 66.6334 7.02863 65.6942 6.96211C64.6982 6.89559 63.697 6.90071 62.701 6.80349C60.7658 6.60906 59.0525 5.75458 57.1999 5.23779C53.5049 4.20423 49.6551 5.35548 46.1098 6.41974C44.4016 6.93141 42.9051 7.63239 41.5375 8.77341C40.0874 9.98094 38.7043 11.3369 36.8569 11.9202C35.8557 12.2323 34.7823 12.2374 33.7966 12.6109C32.9039 12.9537 32.1143 13.5217 31.2009 13.8184C29.4927 14.3762 27.5523 14.1101 26.0145 15.1539C25.8597 15.2613 26.0042 15.5121 26.1641 15.4046C27.6091 14.4273 29.4359 14.6269 31.0564 14.1664C31.8872 13.931 32.6097 13.4756 33.3838 13.1072C34.3024 12.6672 35.2674 12.5751 36.2531 12.3755C37.9715 12.0174 39.401 10.994 40.7015 9.87349C41.4498 9.23391 42.1826 8.56363 43.0134 8.03149C43.8391 7.50448 44.7525 7.15143 45.6814 6.85466C49.459 5.65224 53.6236 4.41913 57.5456 5.64201C59.3621 6.21508 61.0548 6.96211 62.9849 7.12073C64.0118 7.20259 65.0439 7.19748 66.0709 7.28446C67.0927 7.37144 68.0732 7.63239 69.0743 7.82171C70.0445 8.00079 71.0096 8.03661 71.9798 7.83194C72.9809 7.61704 73.9253 7.20771 74.8439 6.76256C76.0979 6.15879 78.157 5.25826 77.9247 3.54929C77.9093 3.41114 77.7286 3.37533 77.6616 3.45719C77.6409 3.46743 77.6254 3.48278 77.6151 3.50324C77.4242 3.82048 77.1816 4.09166 76.8668 4.28609C76.5365 4.49076 76.1753 4.57774 75.8037 4.66984C75.4167 4.76706 75.0967 4.96661 74.7613 5.17128C74.5239 5.31966 74.2762 5.44246 74.0233 5.55503C74.56 4.94614 75.2928 4.53169 75.8811 3.97398C76.2217 3.64651 76.5211 3.26276 76.6707 2.80738C76.8513 2.25478 76.8101 1.66124 76.8255 1.08818C76.8307 1.07283 76.8255 1.05748 76.8255 1.04213C76.8101 0.97561 76.7636 0.939795 76.7068 0.934677C76.6604 0.924445 76.6191 0.92956 76.5778 0.965377C75.6334 1.83009 74.6478 2.70504 73.4557 3.21671C72.8054 3.49813 72.0933 3.67209 71.3811 3.65674C70.6793 3.63628 70.0497 3.37533 69.3891 3.17066C68.1351 2.77668 66.8966 2.97111 65.6168 3.12973C64.2647 3.29346 62.9023 3.28834 61.5451 3.18089C58.81 2.96599 56.111 2.38781 53.3604 2.34688C51.0072 2.30594 48.6488 2.70504 46.4349 3.49301C43.963 4.37308 41.682 5.73411 39.7416 7.49424C39.7313 7.50448 39.7261 7.51471 39.721 7.52494C39.2565 7.65798 38.8127 7.78589 38.3792 8.06219C37.7496 8.47153 37.1355 8.91668 36.5163 9.34136C35.9331 9.74046 35.3551 10.1754 34.6739 10.3954C34.0185 10.6103 33.3115 10.6615 32.6355 10.8047C31.9492 10.948 31.268 11.1322 30.6126 11.3778C30.0294 11.5978 29.4824 11.8741 28.9509 12.1965C28.2697 12.6109 27.6194 12.7388 26.8402 12.7798C27.3614 11.8127 27.8362 10.7791 27.8104 9.70976C27.7846 8.89621 27.6452 8.15429 27.7484 7.33563C27.8413 6.61929 27.8052 5.93878 27.5162 5.26849C27.2272 4.59309 26.675 4.18376 26.2725 3.59023C25.8648 2.99158 25.679 2.29059 25.2301 1.70729C24.8534 1.22633 24.3941 0.806761 23.8728 0.484411C23.2329 0.0853113 22.5827 0.00855997 21.8396 0.0392606C20.3688 0.100661 19.0787 0.330911 17.9124 1.27749C15.7346 3.04786 13.8304 5.96948 14.2793 8.86551C14.4187 9.78139 14.8573 10.6154 15.0947 11.5108C15.3218 12.3807 15.4301 13.2914 15.7759 14.1306C15.8585 14.3301 15.9617 14.5245 16.0701 14.7139C14.5528 14.5655 13.1234 14.0231 11.6371 13.711C10.218 13.4091 8.80396 13.4142 7.44157 13.9566C6.1669 14.4631 5.05738 15.292 4.0201 16.167C2.91574 17.0982 1.84234 17.9834 1.35724 19.3803C0.908275 20.6748 0.763776 22.1637 1.38821 23.4275C1.95587 24.5839 3.03959 25.377 4.24201 25.7966C4.97997 26.0575 5.75922 26.1905 6.52814 26.3185C7.31771 26.4464 8.1176 26.5845 8.91749 26.5589C9.69158 26.5334 10.4553 26.3645 11.1933 26.1445C11.632 26.0166 12.0448 25.9091 12.5093 25.9142C12.8395 25.9194 13.1182 25.8887 13.4175 25.7454C14.2638 25.3412 15.0586 24.7579 15.8585 24.2667C16.6274 23.7908 17.4324 23.3457 18.1652 22.8084C18.5987 22.4912 18.9909 22.1279 19.347 21.7442C18.929 23.6169 18.3872 25.4333 17.0041 26.8659C16.2868 27.613 15.4611 28.2526 14.6561 28.9024C13.753 29.6341 12.8499 30.3606 11.9467 31.0872C11.0488 31.8189 10.1457 32.5454 9.24261 33.272C8.39627 33.9576 7.53962 34.6382 6.81714 35.4466C5.53215 36.8844 4.73226 38.6445 3.90657 40.3586C3.48856 41.2284 3.05507 42.088 2.5545 42.9118C2.0436 43.7612 1.48626 44.5901 1.09922 45.506C0.314807 47.3684 0.206435 49.4253 0.273523 51.4208C0.34577 53.4573 0.423179 55.5858 0.913434 57.5711C1.37273 59.4079 2.41 60.9941 3.23053 62.6826C3.70015 63.6599 4.10267 64.6935 4.18524 65.7782C4.27813 67.0574 3.88077 68.3007 3.56597 69.5185C2.97767 71.8056 2.5803 74.3486 1.17662 76.3134C1.15598 76.3441 1.15082 76.3697 1.15598 76.3953C1.1405 76.4925 1.21275 76.5999 1.33144 76.559C2.15197 76.2878 2.91574 75.7403 3.18925 74.8961ZM40.4383 7.27934C40.7995 6.97234 41.1711 6.68069 41.553 6.40439C41.264 6.78814 40.8924 7.08491 40.4383 7.27934ZM23.1297 17.8401C23.0162 17.9988 22.8923 18.1523 22.7633 18.3006C22.5414 18.5462 22.2937 18.7765 21.9944 18.9249C21.6074 19.1193 21.1945 19.0937 20.7817 18.9863C20.3585 18.8737 19.9405 18.7356 19.5225 18.6025C19.1458 18.49 18.6813 18.4286 18.7277 17.9374C18.8052 17.1699 19.4864 16.4945 20.1469 16.1568C20.9571 16.1261 21.7106 16.4075 22.4279 16.7554C22.6137 16.8424 22.7943 16.9294 22.9749 17.0215C23.1297 17.0982 23.3465 17.1852 23.3671 17.3745C23.3878 17.5485 23.2329 17.7071 23.1297 17.8401ZM18.4594 17.7736C18.3871 18.1318 18.4646 18.5002 18.8155 18.6742C19.0116 18.7765 19.2335 18.8225 19.4451 18.8839C19.4657 18.8942 19.4812 18.8993 19.5018 18.9044C18.9909 19.6975 18.2839 20.3013 17.4944 20.8129C16.7564 21.2888 15.9204 21.6469 15.2237 22.1791C14.7593 22.527 14.429 22.8749 13.8613 23.0745C13.4382 23.2229 13.0201 23.3713 12.6021 23.5503C11.5391 24.0057 10.445 24.1439 9.29421 24.1234C8.77299 24.1132 8.25178 24.0927 7.73572 24.0518C7.03904 23.9955 6.54362 23.7959 6.16174 23.1922C5.52699 22.1944 5.50635 21.0585 6.03273 20.0096C6.47138 19.1449 7.17838 18.4439 7.90602 17.8043C8.8246 17.0061 9.7277 16.4279 10.9766 16.341C12.2357 16.2591 13.5001 16.561 14.7283 16.7861C15.9978 17.0164 17.2673 17.2466 18.5368 17.4769C18.5058 17.5741 18.4749 17.6764 18.4594 17.7736ZM15.0431 10.4005C14.8005 9.74558 14.5683 9.10599 14.5167 8.39989C14.46 7.60681 14.5838 6.80861 14.8315 6.05646C15.2753 4.70566 16.1268 3.52371 17.0815 2.48503C18.0827 1.39006 19.1922 0.57651 20.7043 0.407661C21.4216 0.325794 22.2834 0.213227 22.9801 0.397427C23.6458 0.571395 24.2444 1.04724 24.6985 1.53333C25.1578 2.02964 25.452 2.58224 25.7307 3.19113C25.9938 3.76419 26.386 4.13259 26.7834 4.61356C27.253 5.19174 27.5162 5.92343 27.5162 6.67046C27.5111 7.37144 27.3459 8.02638 27.4182 8.73248C27.5111 9.62789 27.5472 10.4005 27.2117 11.2601C26.9331 11.9713 26.5563 12.6518 26.2003 13.3272C25.4881 14.6883 24.6727 15.9981 23.4858 17.0061C23.429 16.9498 23.3568 16.8936 23.2794 16.8475C22.3556 16.3154 21.2513 15.8293 20.1624 15.8651C20.1314 15.8549 20.0953 15.8549 20.054 15.8753C20.054 15.8753 20.0489 15.8805 20.0437 15.8805C20.0901 15.5786 20.3069 15.333 20.5133 15.113C20.7352 14.8725 20.9829 14.6473 21.2513 14.458C21.7415 14.105 22.2989 13.8543 22.8975 13.7417C22.5363 14.4836 21.9892 15.1181 21.9325 15.9828C21.917 16.167 22.2111 16.167 22.2266 15.9828C22.2937 14.9492 23.1452 14.2022 23.4084 13.2249C23.4806 12.9435 23.4961 12.6518 23.5632 12.3653C23.6406 12.043 23.7903 11.8025 23.9761 11.5364C24.2909 11.0861 24.4353 10.6768 24.554 10.1447C24.7966 9.08553 25.2662 8.21569 25.0443 7.10538C24.8688 6.24066 24.4353 5.42711 23.8367 4.77729C23.2845 4.17864 22.4124 3.50836 21.5557 3.48278C21.1119 3.47254 20.663 3.68233 20.2604 3.85118C19.7857 4.05073 19.347 4.30144 18.96 4.64426C17.3705 6.05134 17.0506 8.28221 17.1589 10.2828C17.1951 10.8968 17.257 11.5057 17.3396 12.1095C17.417 12.6825 17.4634 13.3221 17.6853 13.8543C18.0827 14.8008 19.2954 15.1334 19.5999 16.1209C19.5999 16.1312 19.605 16.1363 19.6102 16.1414C19.4141 16.2796 19.2232 16.4433 19.0632 16.6224C18.7329 16.2437 18.2943 16.0493 17.835 15.8498C17.1589 15.5479 16.6429 15.1488 16.2765 14.4938C15.5746 13.2505 15.5282 11.7308 15.0431 10.4005ZM19.7702 15.773C19.5122 15.2613 19.0271 14.9236 18.5936 14.5348C18.2375 14.2175 17.9795 13.9003 17.8608 13.4296C17.7163 12.8719 17.6544 12.2834 17.5821 11.7155C17.3396 9.70464 17.2467 7.48401 18.413 5.71876C19.0116 4.81823 19.8579 4.29121 20.8642 3.92793C21.4525 3.71814 21.9325 3.78978 22.4743 4.08654C22.9078 4.31679 23.2949 4.62379 23.6303 4.98196C24.2289 5.63689 24.6469 6.46579 24.7914 7.34074C24.8792 7.91381 24.7863 8.44594 24.6005 8.98831C24.4353 9.48974 24.3115 9.98094 24.1773 10.4875C24.0328 11.0452 23.62 11.4136 23.3981 11.9202C23.1865 12.4011 23.2175 12.9384 23.0317 13.4245C23.0162 13.4245 23.0007 13.4193 22.9801 13.4245C22.2473 13.5319 21.5661 13.8491 20.9829 14.2943C20.6939 14.5143 20.4256 14.7599 20.183 15.0362C19.9973 15.2511 19.8321 15.4967 19.7702 15.773ZM18.4233 22.2354C17.2983 23.1871 15.9204 23.8829 14.6664 24.6504C14.0265 25.0444 13.3711 25.597 12.6021 25.6226C12.2667 25.6379 11.9777 25.6328 11.6474 25.7096C11.2346 25.8068 10.8269 25.9552 10.4141 26.0575C8.85556 26.4208 7.32803 26.1905 5.77986 25.8938C4.43295 25.6328 3.11184 25.1826 2.19326 24.1183C1.17662 22.9363 1.09922 21.386 1.49658 19.938C1.6772 19.2677 1.94555 18.6179 2.38936 18.0755C2.82801 17.5383 3.39051 17.0931 3.91689 16.6377C4.91804 15.773 5.97596 14.9339 7.1887 14.3762C8.71623 13.6803 10.285 13.6854 11.8951 14.0692C13.3504 14.412 14.7644 14.9185 16.2713 15.026C16.4571 15.2869 16.679 15.5172 16.9422 15.7065C17.5615 16.1414 18.382 16.254 18.8774 16.8526C18.7948 16.9652 18.7226 17.0829 18.6607 17.2057C17.3137 16.9601 15.9668 16.7145 14.6199 16.4689C13.4278 16.254 12.1996 15.9674 10.9766 16.0493C9.84123 16.1261 8.93297 16.5661 8.07116 17.2824C7.24546 17.9681 6.42493 18.7253 5.88823 19.6617C5.37733 20.5622 5.16575 21.6265 5.54763 22.614C5.88307 23.4992 6.42493 24.1797 7.4106 24.3076C8.56657 24.4611 9.82059 24.4918 10.9714 24.323C11.5339 24.2411 12.0654 24.0927 12.5867 23.8727C13.1388 23.6424 13.7117 23.4685 14.2587 23.2382C14.8573 22.9824 15.2495 22.4758 15.8017 22.1484C16.3281 21.8363 16.8648 21.5497 17.386 21.2274C18.3304 20.639 19.2077 19.9482 19.8011 18.9965C19.9714 19.0477 20.1417 19.0988 20.3172 19.1551C20.4772 19.2012 20.6372 19.2472 20.7971 19.2882C20.1314 20.3627 19.3986 21.4065 18.4233 22.2354ZM4.34006 64.847C3.94269 63.0408 2.87961 61.47 2.07456 59.8275C1.08889 57.8115 0.841185 55.6984 0.686369 53.488C0.541873 51.4004 0.402536 49.2565 0.866989 47.1996C1.34176 45.1171 2.66287 43.4798 3.61758 41.6122C4.51552 39.852 5.25348 37.9845 6.43525 36.3829C7.7512 34.5921 9.69158 33.2874 11.4049 31.9007C12.406 31.0923 13.4072 30.2839 14.4135 29.4754C15.3218 28.7386 16.2713 28.0274 17.097 27.1934C18.7174 25.5561 19.2799 23.4787 19.7495 21.2939V21.2888C20.2501 20.6799 20.6939 20.0198 21.1068 19.3444C21.2668 19.3649 21.4216 19.37 21.5764 19.3496C21.2771 23.4634 19.3831 27.3111 16.3332 30.1048C13.7013 32.5199 10.4192 34.2851 8.25178 37.176C7.7254 37.877 7.29191 38.6394 6.95647 39.4529C6.51266 40.5428 6.06369 41.561 5.43926 42.569C4.89224 43.4491 4.41231 44.3445 4.15428 45.3525C3.90657 46.3195 3.83948 47.3275 3.90657 48.3201C3.92205 48.5248 3.94269 48.7295 3.9685 48.9341C3.95817 48.9444 3.94785 48.9597 3.94269 48.9751C3.42664 50.4742 3.77239 52.0451 4.34006 53.4777C4.97481 55.0895 5.72309 56.6449 6.31656 58.2772C6.37849 58.4562 6.66232 58.3795 6.60039 58.2004C6.04821 56.6756 5.37217 55.2072 4.74774 53.708C4.21104 52.4186 3.80336 51.0217 4.07171 49.6402C4.72194 53.5135 6.93067 56.9366 8.02987 60.6871C8.39627 61.9407 8.63882 63.2403 8.61818 64.5502C8.59754 65.8908 8.25694 67.1699 7.7254 68.3979C7.2145 69.5696 6.58491 70.6953 5.99144 71.8261C5.5786 72.6089 5.16059 73.3969 4.74774 74.1798C4.90256 73.0643 5.44442 72.041 5.99144 71.0637C6.08433 70.9 5.83146 70.7516 5.73857 70.9153C5.0935 72.0615 4.47423 73.269 4.41231 74.6096C4.41231 74.6607 4.43295 74.6965 4.46391 74.7221C4.35038 74.9421 4.23168 75.1673 4.11299 75.3873C4.05623 75.2594 3.99946 75.1315 3.99946 74.9831C3.9943 74.6863 4.04591 74.3793 4.08719 74.0825C4.1646 73.489 4.30393 72.8955 4.61357 72.3787C4.69614 72.2457 4.54132 72.1177 4.41231 72.1791C3.57629 72.5885 3.23569 73.489 3.02927 74.3384C2.91058 74.804 2.78672 75.2184 2.44097 75.5715C2.2139 75.7966 1.94555 75.9757 1.65656 76.1139C2.65255 74.5379 3.05507 72.6857 3.51437 70.9051C4.0201 68.9403 4.78903 66.8936 4.34006 64.847Z" fill="#8FAF9A"/>
</g>
<path d="M22.928 13.1581C22.7927 13.3804 22.8153 13.5743 22.8378 13.8013C22.8603 14.0567 22.7251 14.2884 22.511 14.5249C22.0828 14.9931 21.4855 15.4377 20.8206 15.8539C20.5839 16.0005 21.1474 16.1329 21.3728 15.991C21.9926 15.6032 22.5335 15.1917 22.973 14.7614C23.1533 14.5722 23.3337 14.3783 23.4238 14.1749C23.514 13.9668 23.4463 13.7682 23.4463 13.5554C23.4463 13.125 23.976 12.6426 24.3479 12.2406C24.7761 11.7865 25.2945 11.3514 26.0157 10.9684C26.2637 10.8312 25.8129 10.6373 25.5537 10.7744C24.2915 11.4602 23.4463 12.321 22.928 13.1581Z" fill="#8FAF9A"/>
<path d="M5.22171 25.4312C4.37622 24.4915 3.39105 24.9337 2.47204 24.5191C1.59714 24.1046 0.847237 23.0267 0.391408 21.562C0.259072 21.1336 -0.108532 21.5205 0.0311578 21.9627C0.486986 23.4413 1.22219 24.5744 2.08238 25.1133C2.53086 25.4035 3.00139 25.4726 3.47192 25.5141C4.00127 25.5555 4.54532 25.597 5.01585 26.1083C5.24376 26.3708 5.45697 25.6937 5.22171 25.4312Z" fill="#8FAF9A"/>
<path d="M5.69889 36.658C5.75222 36.4675 6.11883 36.3913 6.26547 36.2999C6.45878 36.178 6.63875 36.0256 6.81205 35.858C7.23199 35.4542 7.59194 34.959 7.95855 34.4866C8.7051 33.5266 9.31167 32.4295 10.2115 31.6371C11.1314 30.8219 12.1046 30.0905 13.0444 29.2981C13.951 28.5362 14.6509 27.5076 15.3907 26.5476C15.5507 26.3343 15.2841 26.0295 15.1241 26.2353C14.3042 27.3019 13.5377 28.3762 12.5178 29.199C11.5647 29.9609 10.5848 30.7 9.69161 31.5533C8.82508 32.3761 8.19851 33.5342 7.44529 34.4866C7.05202 34.9818 6.65874 35.5456 6.13882 35.8809C5.83887 36.0713 5.4456 36.1247 5.33228 36.5437C5.26563 36.818 5.63223 36.9323 5.69889 36.658Z" fill="#8FAF9A"/>
<path d="M10.5544 62.783C11.0534 61.0046 9.55637 59.2217 6.27723 57.6454C5.97426 57.4972 5.08319 57.6274 5.38615 57.7756C8.59401 59.316 10.0197 61.0495 9.53855 62.783C9.48509 62.9446 10.5009 62.9446 10.5544 62.783Z" fill="#8FAF9A"/>
<path d="M31.8764 40.3546L35.7778 14.6689H43.7663V50.8335H38.3374V24.9023L34.3741 50.8335H28.9658L24.6928 25.2707V50.8335H19.6768V14.6689H27.6653L31.8764 40.3546Z" fill="#8FAF9A"/>
<path d="M65.4374 50.8335H59.6369L58.6461 44.2637H51.6277L50.6368 50.8335H45.373L51.1942 14.6689H59.5956L65.4374 50.8335ZM52.3501 39.3722H57.8823L55.1162 21.075L52.3501 39.3722Z" fill="#8FAF9A"/>
<mask id="mask1_251_6752" style="mask-type:luminance" maskUnits="userSpaceOnUse" x="18" y="51" width="39" height="45">
<path d="M56.8981 51.2334H18.5859V95.7689H56.8981V51.2334Z" fill="white"/>
</mask>
<g mask="url(#mask1_251_6752)">
<mask id="mask2_251_6752" style="mask-type:luminance" maskUnits="userSpaceOnUse" x="19" y="53" width="16" height="33">
<path d="M19.0088 53.8535H34.4389V85.2903H19.0088V53.8535Z" fill="white"/>
</mask>
<g mask="url(#mask2_251_6752)">
<path d="M19.4951 54.415H34.3163V58.7335H29.3002V84.6648H24.5112V58.7335H19.4951V54.415Z" fill="#8FAF9A"/>
</g>
<path d="M52.7939 84.6648H47.9636L47.1379 79.1797H41.2549L40.4292 84.6648H36.0117L40.9039 54.415H47.9223L52.7939 84.6648ZM41.8535 75.0659H46.4774L44.1654 59.7568L41.8535 75.0659Z" fill="#8FAF9A"/>
</g>
<mask id="mask3_251_6752" style="mask-type:luminance" maskUnits="userSpaceOnUse" x="19" y="82" width="56" height="55">
<path d="M74.0707 82.6729H19.9053V136.377H74.0707V82.6729Z" fill="white"/>
</mask>
<g mask="url(#mask3_251_6752)">
<path d="M27.5912 96.4858V122.683H22.4307V86.5186H29.6348L35.5179 108.152V86.5186H40.6372V122.683H34.7335L27.5912 96.4858Z" fill="#8FAF9A"/>
<path d="M63.3055 122.683H57.5257L56.5349 116.113H49.4958L48.505 122.683H43.2412L49.083 86.5186H57.4638L63.3055 122.683ZM50.2183 111.201H55.7505L52.9844 92.9246L50.2183 111.201Z" fill="#8FAF9A"/>
</g>
<mask id="mask4_251_6752" style="mask-type:luminance" maskUnits="userSpaceOnUse" x="19" y="123" width="132" height="23">
<path d="M150.038 123.624H19V145.806H150.038V123.624Z" fill="white"/>
</mask>
<g mask="url(#mask4_251_6752)">
<mask id="mask5_251_6752" style="mask-type:luminance" maskUnits="userSpaceOnUse" x="20" y="124" width="9" height="16">
<path d="M20.5352 124.258H28.5877V139.471H20.5352V124.258Z" fill="white"/>
</mask>
<g mask="url(#mask5_251_6752)">
<path d="M21.7842 125.3H28.426V127.231H26.1788V138.817H24.0314V127.231H21.7842V125.3Z" fill="#8FAF9A"/>
</g>
<mask id="mask6_251_6752" style="mask-type:luminance" maskUnits="userSpaceOnUse" x="28" y="124" width="11" height="16">
<path d="M28.584 124.259H38.1721V139.472H28.584V124.259Z" fill="white"/>
</mask>
<g mask="url(#mask6_251_6752)">
<path d="M31.4675 138.818H29.3701V125.301H31.4675V131.094H33.9145V125.301H36.1118V138.818H33.9145V133.025H31.4675V138.818Z" fill="#8FAF9A"/>
</g>
<mask id="mask7_251_6752" style="mask-type:luminance" maskUnits="userSpaceOnUse" x="34" y="124" width="11" height="16">
<path d="M34.9766 124.259H44.5647V139.472H34.9766V124.259Z" fill="white"/>
</mask>
<g mask="url(#mask7_251_6752)">
<path d="M39.7898 130.995H42.7362V132.926H39.7898V136.887H43.5352V138.818H37.6924V125.301H43.5352V127.232H39.7898V130.995Z" fill="#8FAF9A"/>
</g>
<path d="M46.9186 136.781V138.811H44.8711V136.781H46.9186Z" fill="#8FAF9A"/>
<mask id="mask8_251_6752" style="mask-type:luminance" maskUnits="userSpaceOnUse" x="50" y="124" width="11" height="16">
<path d="M50.9541 124.259H60.5423V139.472H50.9541V124.259Z" fill="white"/>
</mask>
<g mask="url(#mask8_251_6752)">
<path d="M53.4638 135.702C53.4638 136.197 53.5636 136.543 53.7634 136.741C53.9631 136.939 54.2253 137.038 54.5624 137.038C54.887 137.038 55.1617 136.939 55.3614 136.741C55.5612 136.543 55.661 136.197 55.661 135.702V128.423C55.661 127.928 55.5612 127.581 55.3614 127.383C55.1617 127.185 54.887 127.086 54.5624 127.086C54.2253 127.086 53.9631 127.185 53.7634 127.383C53.5636 127.581 53.4638 127.928 53.4638 128.423V135.702ZM51.3164 128.572C51.3164 127.458 51.5911 126.616 52.1654 126.047C52.7272 125.452 53.5262 125.155 54.5624 125.155C55.6236 125.155 56.4226 125.452 56.9594 126.047C57.5212 126.616 57.8084 127.458 57.8084 128.572V135.553C57.8084 136.68 57.5212 137.534 56.9594 138.128C56.4226 138.697 55.6236 138.97 54.5624 138.97C53.5262 138.97 52.7272 138.697 52.1654 138.128C51.5911 137.534 51.3164 136.68 51.3164 135.553V128.572Z" fill="#8FAF9A"/>
</g>
<mask id="mask9_251_6752" style="mask-type:luminance" maskUnits="userSpaceOnUse" x="57" y="124" width="10" height="16">
<path d="M57.3467 124.259H66.9348V139.472H57.3467V124.259Z" fill="white"/>
</mask>
<g mask="url(#mask9_251_6752)">
<path d="M61.139 129.014V138.818H59.1914V125.301H61.8881L64.0854 133.371V125.301H65.983V138.818H63.7857L61.139 129.014Z" fill="#8FAF9A"/>
</g>
<mask id="mask10_251_6752" style="mask-type:luminance" maskUnits="userSpaceOnUse" x="66" y="124" width="11" height="16">
<path d="M66.9336 124.259H76.5218V139.472H66.9336V124.259Z" fill="white"/>
</mask>
<g mask="url(#mask10_251_6752)">
<path d="M69.6589 130.995H72.6053V132.926H69.6589V136.887H73.4043V138.818H67.5615V125.301H73.4043V127.232H69.6589V130.995Z" fill="#8FAF9A"/>
</g>
<path d="M76.7867 136.781V138.811H74.7393V136.781H76.7867Z" fill="#8FAF9A"/>
<mask id="mask11_251_6752" style="mask-type:luminance" maskUnits="userSpaceOnUse" x="79" y="124" width="11" height="16">
<path d="M79.7188 124.259H89.3069V139.472H79.7188V124.259Z" fill="white"/>
</mask>
<g mask="url(#mask11_251_6752)">
<path d="M81.0958 128.572C81.0958 127.458 81.358 126.616 81.8949 126.047C82.4192 125.452 83.2057 125.155 84.242 125.155C85.3031 125.155 86.0897 125.452 86.5891 126.047C87.1134 126.616 87.3881 127.458 87.3881 128.572V128.968H85.3905V128.423C85.3905 127.928 85.2907 127.581 85.0909 127.383C84.9161 127.185 84.6539 127.086 84.2919 127.086C83.9548 127.086 83.6926 127.185 83.4929 127.383C83.3181 127.581 83.2432 127.928 83.2432 128.423C83.2432 128.894 83.3431 129.302 83.5428 129.661C83.7675 129.995 84.0422 130.329 84.3418 130.651C84.6415 130.948 84.9661 131.27 85.3406 131.592C85.7026 131.926 86.0397 132.273 86.3394 132.632C86.639 133.003 86.8887 133.424 87.0884 133.919C87.3132 134.39 87.438 134.934 87.438 135.553C87.438 136.68 87.1633 137.534 86.639 138.128C86.1022 138.697 85.3031 138.97 84.242 138.97C83.1683 138.97 82.3693 138.697 81.8449 138.128C81.3081 137.534 81.0459 136.68 81.0459 135.553V134.761H83.0934V135.702C83.0934 136.197 83.1932 136.543 83.393 136.741C83.5928 136.939 83.8549 137.038 84.192 137.038C84.5166 137.038 84.7913 136.939 84.991 136.741C85.1908 136.543 85.2907 136.197 85.2907 135.702C85.2907 135.244 85.1908 134.848 84.991 134.513C84.7913 134.154 84.5166 133.82 84.192 133.523C83.8924 133.201 83.5553 132.879 83.1932 132.582C82.8187 132.26 82.4941 131.914 82.1945 131.543C81.8949 131.146 81.6202 130.726 81.3955 130.255C81.1957 129.76 81.0958 129.203 81.0958 128.572Z" fill="#8FAF9A"/>
</g>
<mask id="mask12_251_6752" style="mask-type:luminance" maskUnits="userSpaceOnUse" x="86" y="124" width="10" height="16">
<path d="M86.1104 124.259H95.6985V139.472H86.1104V124.259Z" fill="white"/>
</mask>
<g mask="url(#mask12_251_6752)">
<path d="M88.0361 125.301H94.6779V127.232H92.4307V138.818H90.2834V127.232H88.0361V125.301Z" fill="#8FAF9A"/>
</g>
<mask id="mask13_251_6752" style="mask-type:luminance" maskUnits="userSpaceOnUse" x="92" y="124" width="11" height="16">
<path d="M92.5029 124.26H102.091V139.473H92.5029V124.26Z" fill="white"/>
</mask>
<g mask="url(#mask13_251_6752)">
<path d="M97.5761 135.702C97.5761 136.197 97.6759 136.543 97.8757 136.741C98.0754 136.939 98.3376 137.038 98.6747 137.038C98.9993 137.038 99.274 136.939 99.4737 136.741C99.6735 136.543 99.7733 136.197 99.7733 135.702V128.423C99.7733 127.928 99.6735 127.581 99.4737 127.383C99.274 127.185 98.9993 127.086 98.6747 127.086C98.3376 127.086 98.0754 127.185 97.8757 127.383C97.6759 127.581 97.5761 127.928 97.5761 128.423V135.702ZM95.4287 128.572C95.4287 127.458 95.7034 126.616 96.2777 126.047C96.8395 125.452 97.6385 125.155 98.6747 125.155C99.7359 125.155 100.535 125.452 101.072 126.047C101.634 126.616 101.921 127.458 101.921 128.572V135.553C101.921 136.68 101.634 137.534 101.072 138.128C100.535 138.697 99.7359 138.97 98.6747 138.97C97.6385 138.97 96.8395 138.697 96.2777 138.128C95.7034 137.534 95.4287 136.68 95.4287 135.553V128.572Z" fill="#8FAF9A"/>
</g>
<mask id="mask14_251_6752" style="mask-type:luminance" maskUnits="userSpaceOnUse" x="102" y="124" width="10" height="16">
<path d="M102.09 124.259H111.678V139.472H102.09V124.259Z" fill="white"/>
</mask>
<g mask="url(#mask14_251_6752)">
<path d="M106.498 125.301C107.559 125.301 108.358 125.585 108.895 126.143C109.419 126.712 109.694 127.529 109.694 128.618V130.401C109.694 131.49 109.419 132.319 108.895 132.876C108.358 133.446 107.559 133.718 106.498 133.718H105.449V138.818H103.352V125.301H106.498ZM105.449 127.232V131.787H106.498C106.822 131.787 107.072 131.713 107.247 131.539C107.447 131.379 107.546 131.044 107.546 130.549V128.519C107.546 128.024 107.447 127.702 107.247 127.529C107.072 127.331 106.822 127.232 106.498 127.232H105.449Z" fill="#8FAF9A"/>
</g>
<path d="M111.193 136.781V138.811H109.146V136.781H111.193Z" fill="#8FAF9A"/>
<mask id="mask15_251_6752" style="mask-type:luminance" maskUnits="userSpaceOnUse" x="114" y="124" width="11" height="16">
<path d="M114.874 124.259H124.462V139.472H114.874V124.259Z" fill="white"/>
</mask>
<g mask="url(#mask15_251_6752)">
<path d="M115.489 128.572C115.489 127.458 115.752 126.616 116.288 126.047C116.813 125.452 117.599 125.155 118.636 125.155C119.697 125.155 120.483 125.452 120.983 126.047C121.507 126.616 121.782 127.458 121.782 128.572V128.968H119.784V128.423C119.784 127.928 119.684 127.581 119.484 127.383C119.31 127.185 119.047 127.086 118.685 127.086C118.348 127.086 118.086 127.185 117.886 127.383C117.712 127.581 117.637 127.928 117.637 128.423C117.637 128.894 117.737 129.302 117.936 129.661C118.161 129.995 118.436 130.329 118.735 130.651C119.035 130.948 119.36 131.27 119.734 131.592C120.096 131.926 120.433 132.273 120.733 132.632C121.033 133.003 121.282 133.424 121.482 133.919C121.707 134.39 121.832 134.934 121.832 135.553C121.832 136.68 121.557 137.534 121.033 138.128C120.496 138.697 119.697 138.97 118.636 138.97C117.562 138.97 116.763 138.697 116.238 138.128C115.702 137.534 115.439 136.68 115.439 135.553V134.761H117.487V135.702C117.487 136.197 117.587 136.543 117.787 136.741C117.986 136.939 118.248 137.038 118.586 137.038C118.91 137.038 119.185 136.939 119.385 136.741C119.584 136.543 119.684 136.197 119.684 135.702C119.684 135.244 119.584 134.848 119.385 134.513C119.185 134.154 118.91 133.82 118.586 133.523C118.286 133.201 117.949 132.879 117.587 132.582C117.212 132.26 116.888 131.914 116.588 131.543C116.288 131.146 116.014 130.726 115.789 130.255C115.589 129.76 115.489 129.203 115.489 128.572Z" fill="#8FAF9A"/>
</g>
<mask id="mask16_251_6752" style="mask-type:luminance" maskUnits="userSpaceOnUse" x="121" y="124" width="10" height="16">
<path d="M121.274 124.26H130.863V139.473H121.274V124.26Z" fill="white"/>
</mask>
<g mask="url(#mask16_251_6752)">
<path d="M125.187 138.818H123.09V125.301H125.187V131.094H127.634V125.301H129.832V138.818H127.634V133.025H125.187V138.818Z" fill="#8FAF9A"/>
</g>
<mask id="mask17_251_6752" style="mask-type:luminance" maskUnits="userSpaceOnUse" x="130" y="124" width="11" height="16">
<path d="M130.854 124.259H140.442V139.472H130.854V124.259Z" fill="white"/>
</mask>
<g mask="url(#mask17_251_6752)">
<path d="M133.349 135.702C133.349 136.197 133.448 136.543 133.648 136.741C133.848 136.939 134.11 137.038 134.447 137.038C134.772 137.038 135.046 136.939 135.246 136.741C135.446 136.543 135.546 136.197 135.546 135.702V128.423C135.546 127.928 135.446 127.581 135.246 127.383C135.046 127.185 134.772 127.086 134.447 127.086C134.11 127.086 133.848 127.185 133.648 127.383C133.448 127.581 133.349 127.928 133.349 128.423V135.702ZM131.201 128.572C131.201 127.458 131.476 126.616 132.05 126.047C132.612 125.452 133.411 125.155 134.447 125.155C135.508 125.155 136.307 125.452 136.844 126.047C137.406 126.616 137.693 127.458 137.693 128.572V135.553C137.693 136.68 137.406 137.534 136.844 138.128C136.307 138.697 135.508 138.97 134.447 138.97C133.411 138.97 132.612 138.697 132.05 138.128C131.476 137.534 131.201 136.68 131.201 135.553V128.572Z" fill="#8FAF9A"/>
</g>
<mask id="mask18_251_6752" style="mask-type:luminance" maskUnits="userSpaceOnUse" x="137" y="124" width="10" height="16">
<path d="M137.251 124.259H146.839V139.472H137.251V124.259Z" fill="white"/>
</mask>
<g mask="url(#mask18_251_6752)">
<path d="M142.276 125.301C143.337 125.301 144.136 125.585 144.673 126.143C145.197 126.712 145.472 127.529 145.472 128.618V130.401C145.472 131.49 145.197 132.319 144.673 132.876C144.136 133.446 143.337 133.718 142.276 133.718H141.227V138.818H139.13V125.301H142.276ZM141.227 127.232V131.787H142.276C142.601 131.787 142.85 131.713 143.025 131.539C143.225 131.379 143.325 131.044 143.325 130.549V128.519C143.325 128.024 143.225 127.702 143.025 127.529C142.85 127.331 142.601 127.232 142.276 127.232H141.227Z" fill="#8FAF9A"/>
</g>
<mask id="mask19_251_6752" style="mask-type:luminance" maskUnits="userSpaceOnUse" x="143" y="136" width="7" height="4">
<path d="M143.643 136.298H149.398V139.467H143.643V136.298Z" fill="white"/>
</mask>
<g mask="url(#mask19_251_6752)">
<path d="M146.971 136.78V138.81H144.924V136.78H146.971Z" fill="#8FAF9A"/>
</g>
</g>
</svg>
