<svg width="151" height="146" viewBox="0 0 151 146" fill="none" xmlns="http://www.w3.org/2000/svg">
<mask id="mask0_245_846" style="mask-type:luminance" maskUnits="userSpaceOnUse" x="0" y="0" width="79" height="77">
<path d="M0.0908203 0H78.0362V76.6272H0.0908203V0Z" fill="white"/>
</mask>
<g mask="url(#mask0_245_846)">
<path d="M3.18925 74.8966C3.33891 74.4156 3.41115 73.9142 3.62274 73.4537C3.74659 73.1927 3.90657 72.9574 4.10783 72.7629C3.95818 73.1518 3.86529 73.5611 3.80852 73.9756C3.76723 74.2723 3.72595 74.5691 3.71047 74.8659C3.70015 75.0245 3.70531 75.1933 3.76207 75.3417C3.80852 75.4748 3.91689 75.5873 3.93237 75.7255C3.94785 75.8739 4.1388 75.9046 4.20072 75.8125C4.22136 75.8022 4.23685 75.7869 4.24717 75.7613C5.38765 73.6021 6.58491 71.4633 7.64799 69.2682C8.61302 67.2625 9.10327 65.2107 8.81944 62.985C8.25178 58.513 5.48055 54.7216 4.5052 50.357C4.01494 48.1518 4.00462 45.8032 5.08318 43.7565C5.59408 42.7844 6.25979 41.9043 6.69844 40.8963C7.10613 39.96 7.42092 38.998 7.95762 38.1231C9.91348 34.9508 13.3607 33.0934 16.1113 30.6937C19.4657 27.7721 21.5764 23.7146 21.8809 19.2835C22.2318 19.171 22.5363 18.9458 22.7943 18.69C23.0833 18.4086 23.4032 18.0504 23.589 17.6922C23.6716 17.5336 23.6819 17.3904 23.6406 17.2573C23.6458 17.2522 23.6509 17.2522 23.6561 17.2522C24.7914 16.2954 25.6068 15.0572 26.3035 13.7626C26.4222 13.5375 26.5512 13.3073 26.6854 13.0719C26.7008 13.0719 26.7163 13.077 26.7318 13.077C27.3717 13.0514 28.0168 13.0156 28.5999 12.7342C29.3121 12.3914 29.9417 11.9462 30.69 11.6597C31.4021 11.3885 32.1401 11.1992 32.8884 11.0508C33.6109 10.9024 34.3746 10.8513 35.0661 10.5647C36.4492 9.99166 37.5226 8.84042 38.8282 8.13431C39.4784 7.78638 40.2474 7.77103 40.8924 7.40263C41.3827 7.12122 41.7646 6.70165 42.0329 6.21045C42.0639 6.15928 42.0536 6.10811 42.0278 6.06718C45.3357 3.81073 49.33 2.57762 53.3604 2.63902C56.111 2.67995 58.81 3.25302 61.5451 3.47303C62.9023 3.58048 64.2647 3.5856 65.6168 3.42187C66.2722 3.34 66.9276 3.22743 67.5933 3.21208C68.3106 3.19673 68.9763 3.33488 69.6472 3.56513C70.9528 4.00516 72.1552 4.06657 73.4454 3.53955C74.6168 3.05858 75.5973 2.24503 76.5262 1.4059C76.5211 1.88175 76.5262 2.36272 76.3611 2.80787C76.1856 3.26325 75.8399 3.63165 75.4735 3.94377C74.7768 4.54753 73.9511 5.01827 73.4608 5.82158C73.3989 5.92391 73.5021 6.07741 73.626 6.03136C74.0491 5.88298 74.4568 5.69878 74.8387 5.46853C75.0297 5.35596 75.2103 5.23316 75.4064 5.13083C75.6386 5.00803 75.8863 4.95175 76.1443 4.89035C76.7481 4.74708 77.2487 4.42985 77.6306 3.96935C77.4603 5.42248 75.3548 6.22068 74.2091 6.74258C73.4712 7.07516 72.7074 7.36682 71.9127 7.53566C71.9023 7.5152 71.8869 7.49985 71.8611 7.4845C71.0096 6.99842 70.1271 6.56862 69.126 6.55838C68.6047 6.55327 68.0887 6.58908 67.5675 6.55838C66.9895 6.52768 66.4115 6.45605 65.8387 6.38441C65.6529 6.36395 65.6529 6.6556 65.8387 6.67606C66.8708 6.80398 67.8771 6.87561 68.9144 6.85003C69.8691 6.82956 70.6844 7.17238 71.4947 7.61753C71.4637 7.62265 71.4327 7.63288 71.3966 7.63288C70.4006 7.77103 69.4253 7.6073 68.4499 7.3924C67.5365 7.19285 66.6334 7.02911 65.6942 6.9626C64.6982 6.89608 63.697 6.9012 62.701 6.80398C60.7658 6.60955 59.0525 5.75506 57.1999 5.23828C53.5049 4.20471 49.6551 5.35596 46.1098 6.42023C44.4016 6.9319 42.9051 7.63288 41.5375 8.7739C40.0874 9.98143 38.7043 11.3373 36.8569 11.9206C35.8557 12.2328 34.7823 12.2379 33.7966 12.6114C32.9039 12.9542 32.1143 13.5222 31.2009 13.8189C29.4927 14.3766 27.5523 14.1106 26.0145 15.1544C25.8597 15.2618 26.0042 15.5125 26.1641 15.4051C27.6091 14.4278 29.4359 14.6274 31.0564 14.1669C31.8872 13.9315 32.6097 13.4761 33.3838 13.1077C34.3024 12.6677 35.2674 12.5756 36.2531 12.376C37.9715 12.0179 39.401 10.9945 40.7015 9.87398C41.4498 9.2344 42.1826 8.56411 43.0134 8.03198C43.8391 7.50497 44.7525 7.15191 45.6814 6.85515C49.459 5.65273 53.6236 4.41962 57.5456 5.6425C59.3621 6.21556 61.0548 6.9626 62.9849 7.12121C64.0118 7.20308 65.0439 7.19796 66.0709 7.28495C67.0927 7.37193 68.0732 7.63288 69.0743 7.8222C70.0445 8.00128 71.0096 8.0371 71.9798 7.83243C72.9809 7.61753 73.9253 7.2082 74.8439 6.76305C76.0979 6.15928 78.157 5.25875 77.9247 3.54978C77.9093 3.41163 77.7286 3.37582 77.6616 3.45768C77.6409 3.46791 77.6254 3.48327 77.6151 3.50373C77.4242 3.82097 77.1816 4.09215 76.8668 4.28658C76.5365 4.49125 76.1753 4.57823 75.8037 4.67033C75.4167 4.76755 75.0967 4.9671 74.7613 5.17177C74.5239 5.32015 74.2762 5.44295 74.0233 5.55551C74.56 4.94663 75.2928 4.53218 75.8811 3.97447C76.2217 3.647 76.5211 3.26325 76.6707 2.80787C76.8513 2.25527 76.8101 1.66173 76.8255 1.08867C76.8307 1.07332 76.8255 1.05796 76.8255 1.04262C76.8101 0.976098 76.7636 0.940283 76.7068 0.935166C76.6604 0.924933 76.6191 0.930049 76.5778 0.965866C75.6334 1.83058 74.6478 2.70553 73.4557 3.2172C72.8054 3.49862 72.0933 3.67258 71.3811 3.65723C70.6793 3.63676 70.0497 3.37582 69.3891 3.17115C68.1351 2.77716 66.8966 2.9716 65.6168 3.13022C64.2647 3.29395 62.9023 3.28883 61.5451 3.18138C58.81 2.96648 56.111 2.3883 53.3604 2.34737C51.0072 2.30643 48.6488 2.70553 46.4349 3.4935C43.963 4.37356 41.682 5.7346 39.7416 7.49473C39.7313 7.50497 39.7261 7.5152 39.721 7.52543C39.2565 7.65847 38.8127 7.78638 38.3792 8.06268C37.7496 8.47201 37.1355 8.91716 36.5163 9.34185C35.9331 9.74095 35.3551 10.1759 34.6739 10.3959C34.0185 10.6108 33.3115 10.6619 32.6355 10.8052C31.9492 10.9485 31.268 11.1327 30.6126 11.3783C30.0294 11.5983 29.4824 11.8746 28.9509 12.1969C28.2697 12.6114 27.6194 12.7393 26.8402 12.7802C27.3614 11.8132 27.8362 10.7796 27.8104 9.71025C27.7846 8.8967 27.6452 8.15478 27.7484 7.33611C27.8413 6.61978 27.8052 5.93927 27.5162 5.26898C27.2272 4.59358 26.675 4.18425 26.2725 3.59072C25.8648 2.99207 25.679 2.29108 25.2301 1.70778C24.8534 1.22682 24.3941 0.807249 23.8728 0.484899C23.2329 0.0857996 22.5827 0.00904826 21.8396 0.0397489C20.3688 0.101149 19.0787 0.331399 17.9124 1.27798C15.7346 3.04835 13.8304 5.96996 14.2793 8.866C14.4187 9.78188 14.8573 10.6159 15.0947 11.5113C15.3218 12.3811 15.4301 13.2919 15.7759 14.131C15.8585 14.3306 15.9617 14.525 16.0701 14.7143C14.5528 14.566 13.1234 14.0236 11.6371 13.7115C10.218 13.4096 8.80396 13.4147 7.44157 13.9571C6.1669 14.4636 5.05738 15.2925 4.0201 16.1675C2.91574 17.0987 1.84234 17.9839 1.35724 19.3807C0.908275 20.6753 0.763776 22.1642 1.38821 23.428C1.95587 24.5844 3.03959 25.3775 4.24201 25.797C4.97997 26.058 5.75922 26.191 6.52814 26.3189C7.31771 26.4469 8.1176 26.585 8.91749 26.5594C9.69158 26.5338 10.4553 26.365 11.1933 26.145C11.632 26.0171 12.0448 25.9096 12.5093 25.9147C12.8395 25.9198 13.1182 25.8891 13.4175 25.7459C14.2638 25.3417 15.0586 24.7584 15.8585 24.2672C16.6274 23.7913 17.4324 23.3462 18.1652 22.8089C18.5987 22.4917 18.9909 22.1284 19.347 21.7446C18.929 23.6173 18.3872 25.4338 17.0041 26.8664C16.2868 27.6135 15.4611 28.253 14.6561 28.9029C13.753 29.6345 12.8499 30.3611 11.9467 31.0877C11.0488 31.8194 10.1457 32.5459 9.24261 33.2725C8.39627 33.9581 7.53962 34.6386 6.81714 35.4471C5.53215 36.8849 4.73226 38.645 3.90657 40.3591C3.48856 41.2289 3.05507 42.0885 2.5545 42.9123C2.0436 43.7617 1.48626 44.5906 1.09922 45.5064C0.314807 47.3689 0.206435 49.4258 0.273523 51.4213C0.34577 53.4577 0.423179 55.5863 0.913434 57.5715C1.37273 59.4084 2.41 60.9946 3.23053 62.6831C3.70015 63.6604 4.10267 64.6939 4.18524 65.7787C4.27813 67.0578 3.88077 68.3012 3.56597 69.519C2.97767 71.8061 2.5803 74.3491 1.17662 76.3139C1.15598 76.3446 1.15082 76.3702 1.15598 76.3958C1.1405 76.493 1.21275 76.6004 1.33144 76.5595C2.15197 76.2883 2.91574 75.7408 3.18925 74.8966ZM40.4383 7.27983C40.7995 6.97283 41.1711 6.68118 41.553 6.40488C41.264 6.78863 40.8924 7.0854 40.4383 7.27983ZM23.1297 17.8406C23.0162 17.9992 22.8923 18.1527 22.7633 18.3011C22.5414 18.5467 22.2937 18.777 21.9944 18.9254C21.6074 19.1198 21.1945 19.0942 20.7817 18.9868C20.3585 18.8742 19.9405 18.736 19.5225 18.603C19.1458 18.4904 18.6813 18.429 18.7277 17.9378C18.8052 17.1703 19.4864 16.4949 20.1469 16.1572C20.9571 16.1265 21.7106 16.408 22.4279 16.7559C22.6137 16.8429 22.7943 16.9299 22.9749 17.022C23.1297 17.0987 23.3465 17.1857 23.3671 17.375C23.3878 17.549 23.2329 17.7076 23.1297 17.8406ZM18.4594 17.7741C18.3871 18.1323 18.4646 18.5007 18.8155 18.6746C19.0116 18.777 19.2335 18.823 19.4451 18.8844C19.4657 18.8947 19.4812 18.8998 19.5018 18.9049C18.9909 19.698 18.2839 20.3017 17.4944 20.8134C16.7564 21.2893 15.9204 21.6474 15.2237 22.1796C14.7593 22.5275 14.429 22.8754 13.8613 23.075C13.4382 23.2234 13.0201 23.3717 12.6021 23.5508C11.5391 24.0062 10.445 24.1444 9.29421 24.1239C8.77299 24.1137 8.25178 24.0932 7.73572 24.0523C7.03904 23.996 6.54362 23.7964 6.16174 23.1927C5.52699 22.1949 5.50635 21.059 6.03273 20.0101C6.47138 19.1454 7.17838 18.4444 7.90602 17.8048C8.8246 17.0066 9.7277 16.4284 10.9766 16.3414C12.2357 16.2596 13.5001 16.5615 14.7283 16.7866C15.9978 17.0168 17.2673 17.2471 18.5368 17.4773C18.5058 17.5746 18.4749 17.6769 18.4594 17.7741ZM15.0431 10.401C14.8005 9.74606 14.5683 9.10648 14.5167 8.40038C14.46 7.6073 14.5838 6.8091 14.8315 6.05695C15.2753 4.70615 16.1268 3.5242 17.0815 2.48552C18.0827 1.39055 19.1922 0.576999 20.7043 0.408149C21.4216 0.326282 22.2834 0.213716 22.9801 0.397916C23.6458 0.571883 24.2444 1.04773 24.6985 1.53382C25.1578 2.03013 25.452 2.58273 25.7307 3.19162C25.9938 3.76468 26.386 4.13308 26.7834 4.61405C27.253 5.19223 27.5162 5.92391 27.5162 6.67095C27.5111 7.37193 27.3459 8.02686 27.4182 8.73296C27.5111 9.62838 27.5472 10.401 27.2117 11.2606C26.9331 11.9718 26.5563 12.6523 26.2003 13.3277C25.4881 14.6888 24.6727 15.9986 23.4858 17.0066C23.429 16.9503 23.3568 16.894 23.2794 16.848C22.3556 16.3159 21.2513 15.8298 20.1624 15.8656C20.1314 15.8554 20.0953 15.8554 20.054 15.8758C20.054 15.8758 20.0489 15.8809 20.0437 15.8809C20.0901 15.5791 20.3069 15.3335 20.5133 15.1134C20.7352 14.873 20.9829 14.6478 21.2513 14.4585C21.7415 14.1055 22.2989 13.8547 22.8975 13.7422C22.5363 14.4841 21.9892 15.1186 21.9325 15.9833C21.917 16.1675 22.2111 16.1675 22.2266 15.9833C22.2937 14.9497 23.1452 14.2027 23.4084 13.2254C23.4806 12.944 23.4961 12.6523 23.5632 12.3658C23.6406 12.0434 23.7903 11.803 23.9761 11.5369C24.2909 11.0866 24.4353 10.6773 24.554 10.1452C24.7966 9.08602 25.2662 8.21618 25.0443 7.10586C24.8688 6.24115 24.4353 5.4276 23.8367 4.77778C23.2845 4.17913 22.4124 3.50885 21.5557 3.48327C21.1119 3.47303 20.663 3.68282 20.2604 3.85167C19.7857 4.05122 19.347 4.30193 18.96 4.64475C17.3705 6.05183 17.0506 8.2827 17.1589 10.2833C17.1951 10.8973 17.257 11.5062 17.3396 12.11C17.417 12.683 17.4634 13.3226 17.6853 13.8547C18.0827 14.8013 19.2954 15.1339 19.5999 16.1214C19.5999 16.1317 19.605 16.1368 19.6102 16.1419C19.4141 16.28 19.2232 16.4438 19.0632 16.6229C18.7329 16.2442 18.2943 16.0498 17.835 15.8502C17.1589 15.5484 16.6429 15.1493 16.2765 14.4943C15.5746 13.251 15.5282 11.7313 15.0431 10.401ZM19.7702 15.7735C19.5122 15.2618 19.0271 14.9241 18.5936 14.5353C18.2375 14.218 17.9795 13.9008 17.8608 13.4301C17.7163 12.8723 17.6544 12.2839 17.5821 11.716C17.3396 9.70513 17.2467 7.4845 18.413 5.71925C19.0116 4.81872 19.8579 4.2917 20.8642 3.92842C21.4525 3.71863 21.9325 3.79027 22.4743 4.08703C22.9078 4.31728 23.2949 4.62428 23.6303 4.98245C24.2289 5.63738 24.6469 6.46628 24.7914 7.34123C24.8792 7.9143 24.7863 8.44643 24.6005 8.9888C24.4353 9.49023 24.3115 9.98143 24.1773 10.488C24.0328 11.0457 23.62 11.4141 23.3981 11.9206C23.1865 12.4016 23.2175 12.9389 23.0317 13.4249C23.0162 13.4249 23.0007 13.4198 22.9801 13.4249C22.2473 13.5324 21.5661 13.8496 20.9829 14.2948C20.6939 14.5148 20.4256 14.7604 20.183 15.0367C19.9973 15.2516 19.8321 15.4972 19.7702 15.7735ZM18.4233 22.2358C17.2983 23.1875 15.9204 23.8834 14.6664 24.6509C14.0265 25.0449 13.3711 25.5975 12.6021 25.6231C12.2667 25.6384 11.9777 25.6333 11.6474 25.7101C11.2346 25.8073 10.8269 25.9557 10.4141 26.058C8.85556 26.4213 7.32803 26.191 5.77986 25.8943C4.43295 25.6333 3.11184 25.183 2.19326 24.1188C1.17662 22.9368 1.09922 21.3865 1.49658 19.9385C1.6772 19.2682 1.94555 18.6184 2.38936 18.076C2.82801 17.5387 3.39051 17.0936 3.91689 16.6382C4.91804 15.7735 5.97596 14.9344 7.1887 14.3766C8.71623 13.6808 10.285 13.6859 11.8951 14.0696C13.3504 14.4125 14.7644 14.919 16.2713 15.0265C16.4571 15.2874 16.679 15.5177 16.9422 15.707C17.5615 16.1419 18.382 16.2545 18.8774 16.8531C18.7948 16.9657 18.7226 17.0834 18.6607 17.2062C17.3137 16.9606 15.9668 16.715 14.6199 16.4694C13.4278 16.2545 12.1996 15.9679 10.9766 16.0498C9.84123 16.1265 8.93297 16.5666 8.07116 17.2829C7.24546 17.9685 6.42493 18.7258 5.88823 19.6622C5.37733 20.5627 5.16575 21.627 5.54763 22.6145C5.88307 23.4997 6.42493 24.1802 7.4106 24.3081C8.56657 24.4616 9.82059 24.4923 10.9714 24.3234C11.5339 24.2416 12.0654 24.0932 12.5867 23.8732C13.1388 23.6429 13.7117 23.469 14.2587 23.2387C14.8573 22.9829 15.2495 22.4763 15.8017 22.1489C16.3281 21.8367 16.8648 21.5502 17.386 21.2279C18.3304 20.6394 19.2077 19.9487 19.8011 18.997C19.9714 19.0482 20.1417 19.0993 20.3172 19.1556C20.4772 19.2017 20.6372 19.2477 20.7971 19.2886C20.1314 20.3631 19.3986 21.4069 18.4233 22.2358ZM4.34006 64.8474C3.94269 63.0413 2.87961 61.4704 2.07456 59.828C1.08889 57.812 0.841185 55.6988 0.686369 53.4884C0.541873 51.4008 0.402536 49.257 0.866989 47.2001C1.34176 45.1176 2.66287 43.4802 3.61758 41.6127C4.51552 39.8525 5.25348 37.9849 6.43525 36.3834C7.7512 34.5926 9.69158 33.2878 11.4049 31.9012C12.406 31.0928 13.4072 30.2844 14.4135 29.4759C15.3218 28.7391 16.2713 28.0279 17.097 27.1939C18.7174 25.5566 19.2799 23.4792 19.7495 21.2944V21.2893C20.2501 20.6804 20.6939 20.0203 21.1068 19.3449C21.2668 19.3654 21.4216 19.3705 21.5764 19.35C21.2771 23.4638 19.3831 27.3116 16.3332 30.1053C13.7013 32.5203 10.4192 34.2856 8.25178 37.1765C7.7254 37.8775 7.29191 38.6399 6.95647 39.4534C6.51266 40.5433 6.06369 41.5615 5.43926 42.5695C4.89224 43.4495 4.41231 44.345 4.15428 45.3529C3.90657 46.32 3.83948 47.328 3.90657 48.3206C3.92205 48.5253 3.94269 48.7299 3.9685 48.9346C3.95817 48.9448 3.94785 48.9602 3.94269 48.9755C3.42664 50.4747 3.77239 52.0455 4.34006 53.4782C4.97481 55.09 5.72309 56.6454 6.31656 58.2776C6.37849 58.4567 6.66232 58.38 6.60039 58.2009C6.04821 56.6761 5.37217 55.2076 4.74774 53.7085C4.21104 52.4191 3.80336 51.0222 4.07171 49.6407C4.72194 53.514 6.93067 56.9371 8.02987 60.6876C8.39627 61.9412 8.63882 63.2408 8.61818 64.5507C8.59754 65.8912 8.25694 67.1704 7.7254 68.3984C7.2145 69.5701 6.58491 70.6958 5.99144 71.8266C5.5786 72.6094 5.16059 73.3974 4.74774 74.1802C4.90256 73.0648 5.44442 72.0415 5.99144 71.0642C6.08433 70.9005 5.83146 70.7521 5.73857 70.9158C5.0935 72.0619 4.47423 73.2695 4.41231 74.61C4.41231 74.6612 4.43295 74.697 4.46391 74.7226C4.35038 74.9426 4.23168 75.1678 4.11299 75.3878C4.05623 75.2599 3.99946 75.1319 3.99946 74.9836C3.9943 74.6868 4.04591 74.3798 4.08719 74.083C4.1646 73.4895 4.30393 72.896 4.61357 72.3792C4.69614 72.2461 4.54132 72.1182 4.41231 72.1796C3.57629 72.589 3.23569 73.4895 3.02927 74.3389C2.91058 74.8045 2.78672 75.2189 2.44097 75.572C2.2139 75.7971 1.94555 75.9762 1.65656 76.1143C2.65255 74.5384 3.05507 72.6862 3.51437 70.9056C4.0201 68.9408 4.78903 66.8941 4.34006 64.8474Z" fill="#076831"/>
</g>
<path d="M22.928 13.1581C22.7927 13.3804 22.8153 13.5743 22.8378 13.8013C22.8603 14.0567 22.7251 14.2884 22.511 14.5249C22.0828 14.9931 21.4855 15.4377 20.8206 15.8539C20.5839 16.0005 21.1474 16.1329 21.3728 15.991C21.9926 15.6032 22.5335 15.1917 22.973 14.7614C23.1533 14.5722 23.3337 14.3783 23.4238 14.1749C23.514 13.9668 23.4463 13.7682 23.4463 13.5554C23.4463 13.125 23.976 12.6426 24.3479 12.2406C24.7761 11.7865 25.2945 11.3514 26.0157 10.9684C26.2637 10.8312 25.8129 10.6373 25.5537 10.7744C24.2915 11.4602 23.4463 12.321 22.928 13.1581Z" fill="#076831"/>
<path d="M5.22171 25.4309C4.37622 24.4913 3.39105 24.9335 2.47204 24.5189C1.59714 24.1043 0.847237 23.0265 0.391408 21.5617C0.259072 21.1334 -0.108532 21.5203 0.0311578 21.9625C0.486986 23.4411 1.22219 24.5742 2.08238 25.1131C2.53086 25.4033 3.00139 25.4724 3.47192 25.5138C4.00127 25.5553 4.54532 25.5967 5.01585 26.108C5.24376 26.3706 5.45697 25.6935 5.22171 25.4309Z" fill="#076831"/>
<path d="M5.69889 36.6585C5.75222 36.468 6.11883 36.3918 6.26547 36.3004C6.45878 36.1785 6.63875 36.0261 6.81205 35.8585C7.23199 35.4547 7.59194 34.9595 7.95855 34.4871C8.7051 33.5271 9.31167 32.43 10.2115 31.6376C11.1314 30.8224 12.1046 30.0909 13.0444 29.2986C13.951 28.5367 14.6509 27.5081 15.3907 26.5481C15.5507 26.3348 15.2841 26.03 15.1241 26.2357C14.3042 27.3024 13.5377 28.3767 12.5178 29.1995C11.5647 29.9614 10.5848 30.7005 9.69161 31.5538C8.82508 32.3766 8.19851 33.5347 7.44529 34.4871C7.05202 34.9823 6.65874 35.5461 6.13882 35.8814C5.83887 36.0718 5.4456 36.1252 5.33228 36.5442C5.26563 36.8185 5.63223 36.9328 5.69889 36.6585Z" fill="#076831"/>
<path d="M10.5544 62.7827C11.0534 61.0043 9.55637 59.2214 6.27723 57.6451C5.97426 57.4969 5.08319 57.6272 5.38615 57.7754C8.59401 59.3158 10.0197 61.0492 9.53855 62.7827C9.48509 62.9444 10.5009 62.9444 10.5544 62.7827Z" fill="#076831"/>
<path d="M31.8764 40.3549L35.7778 14.6692H43.7663V50.8338H38.3374V24.9025L34.3741 50.8338H28.9658L24.6928 25.2709V50.8338H19.6768V14.6692H27.6653L31.8764 40.3549Z" fill="#076831"/>
<path d="M65.4374 50.8338H59.6369L58.6461 44.264H51.6277L50.6368 50.8338H45.373L51.1942 14.6692H59.5956L65.4374 50.8338ZM52.3501 39.3725H57.8823L55.1162 21.0753L52.3501 39.3725Z" fill="#076831"/>
<mask id="mask1_245_846" style="mask-type:luminance" maskUnits="userSpaceOnUse" x="18" y="51" width="39" height="45">
<path d="M56.8981 51.2336H18.5859V95.7691H56.8981V51.2336Z" fill="white"/>
</mask>
<g mask="url(#mask1_245_846)">
<mask id="mask2_245_846" style="mask-type:luminance" maskUnits="userSpaceOnUse" x="19" y="53" width="16" height="33">
<path d="M19.0088 53.8542H34.4389V85.291H19.0088V53.8542Z" fill="white"/>
</mask>
<g mask="url(#mask2_245_846)">
<path d="M19.4951 54.4155H34.3163V58.734H29.3002V84.6653H24.5112V58.734H19.4951V54.4155Z" fill="#076831"/>
</g>
<path d="M52.7939 84.6653H47.9636L47.1379 79.1802H41.2549L40.4292 84.6653H36.0117L40.9039 54.4155H47.9223L52.7939 84.6653ZM41.8535 75.0664H46.4774L44.1654 59.7573L41.8535 75.0664Z" fill="#076831"/>
</g>
<mask id="mask3_245_846" style="mask-type:luminance" maskUnits="userSpaceOnUse" x="19" y="82" width="56" height="55">
<path d="M74.0707 82.6724H19.9053V136.377H74.0707V82.6724Z" fill="white"/>
</mask>
<g mask="url(#mask3_245_846)">
<path d="M27.5912 96.4858V122.683H22.4307V86.5186H29.6348L35.5179 108.152V86.5186H40.6372V122.683H34.7335L27.5912 96.4858Z" fill="#076831"/>
<path d="M63.3055 122.683H57.5257L56.5349 116.113H49.4958L48.505 122.683H43.2412L49.083 86.5186H57.4638L63.3055 122.683ZM50.2183 111.201H55.7505L52.9844 92.9246L50.2183 111.201Z" fill="#076831"/>
</g>
<mask id="mask4_245_846" style="mask-type:luminance" maskUnits="userSpaceOnUse" x="19" y="123" width="132" height="23">
<path d="M150.038 123.625H19V145.807H150.038V123.625Z" fill="white"/>
</mask>
<g mask="url(#mask4_245_846)">
<mask id="mask5_245_846" style="mask-type:luminance" maskUnits="userSpaceOnUse" x="20" y="124" width="9" height="16">
<path d="M20.5352 124.259H28.5877V139.472H20.5352V124.259Z" fill="white"/>
</mask>
<g mask="url(#mask5_245_846)">
<path d="M21.7842 125.301H28.426V127.232H26.1788V138.818H24.0314V127.232H21.7842V125.301Z" fill="#076831"/>
</g>
<mask id="mask6_245_846" style="mask-type:luminance" maskUnits="userSpaceOnUse" x="28" y="124" width="11" height="16">
<path d="M28.584 124.26H38.1721V139.473H28.584V124.26Z" fill="white"/>
</mask>
<g mask="url(#mask6_245_846)">
<path d="M31.4675 138.819H29.3701V125.302H31.4675V131.095H33.9145V125.302H36.1118V138.819H33.9145V133.026H31.4675V138.819Z" fill="#076831"/>
</g>
<mask id="mask7_245_846" style="mask-type:luminance" maskUnits="userSpaceOnUse" x="34" y="124" width="11" height="16">
<path d="M34.9766 124.26H44.5647V139.473H34.9766V124.26Z" fill="white"/>
</mask>
<g mask="url(#mask7_245_846)">
<path d="M39.7898 130.996H42.7362V132.927H39.7898V136.888H43.5352V138.819H37.6924V125.302H43.5352V127.233H39.7898V130.996Z" fill="#076831"/>
</g>
<path d="M46.9186 136.782V138.812H44.8711V136.782H46.9186Z" fill="#076831"/>
<mask id="mask8_245_846" style="mask-type:luminance" maskUnits="userSpaceOnUse" x="50" y="124" width="11" height="16">
<path d="M50.9541 124.26H60.5423V139.473H50.9541V124.26Z" fill="white"/>
</mask>
<g mask="url(#mask8_245_846)">
<path d="M53.4638 135.703C53.4638 136.198 53.5636 136.545 53.7634 136.743C53.9631 136.941 54.2253 137.04 54.5624 137.04C54.887 137.04 55.1617 136.941 55.3614 136.743C55.5612 136.545 55.661 136.198 55.661 135.703V128.424C55.661 127.929 55.5612 127.583 55.3614 127.385C55.1617 127.187 54.887 127.088 54.5624 127.088C54.2253 127.088 53.9631 127.187 53.7634 127.385C53.5636 127.583 53.4638 127.929 53.4638 128.424V135.703ZM51.3164 128.573C51.3164 127.459 51.5911 126.617 52.1654 126.048C52.7272 125.454 53.5262 125.156 54.5624 125.156C55.6236 125.156 56.4226 125.454 56.9594 126.048C57.5212 126.617 57.8084 127.459 57.8084 128.573V135.554C57.8084 136.681 57.5212 137.535 56.9594 138.129C56.4226 138.698 55.6236 138.971 54.5624 138.971C53.5262 138.971 52.7272 138.698 52.1654 138.129C51.5911 137.535 51.3164 136.681 51.3164 135.554V128.573Z" fill="#076831"/>
</g>
<mask id="mask9_245_846" style="mask-type:luminance" maskUnits="userSpaceOnUse" x="57" y="124" width="10" height="16">
<path d="M57.3467 124.26H66.9348V139.473H57.3467V124.26Z" fill="white"/>
</mask>
<g mask="url(#mask9_245_846)">
<path d="M61.139 129.015V138.819H59.1914V125.302H61.8881L64.0854 133.372V125.302H65.983V138.819H63.7857L61.139 129.015Z" fill="#076831"/>
</g>
<mask id="mask10_245_846" style="mask-type:luminance" maskUnits="userSpaceOnUse" x="66" y="124" width="11" height="16">
<path d="M66.9336 124.26H76.5218V139.473H66.9336V124.26Z" fill="white"/>
</mask>
<g mask="url(#mask10_245_846)">
<path d="M69.6589 130.996H72.6053V132.927H69.6589V136.888H73.4043V138.819H67.5615V125.302H73.4043V127.233H69.6589V130.996Z" fill="#076831"/>
</g>
<path d="M76.7867 136.782V138.812H74.7393V136.782H76.7867Z" fill="#076831"/>
<mask id="mask11_245_846" style="mask-type:luminance" maskUnits="userSpaceOnUse" x="79" y="124" width="11" height="16">
<path d="M79.7188 124.26H89.3069V139.473H79.7188V124.26Z" fill="white"/>
</mask>
<g mask="url(#mask11_245_846)">
<path d="M81.0958 128.573C81.0958 127.459 81.358 126.617 81.8949 126.048C82.4192 125.454 83.2057 125.156 84.242 125.156C85.3031 125.156 86.0897 125.454 86.5891 126.048C87.1134 126.617 87.3881 127.459 87.3881 128.573V128.969H85.3905V128.424C85.3905 127.929 85.2907 127.583 85.0909 127.385C84.9161 127.187 84.6539 127.088 84.2919 127.088C83.9548 127.088 83.6926 127.187 83.4929 127.385C83.3181 127.583 83.2432 127.929 83.2432 128.424C83.2432 128.895 83.3431 129.303 83.5428 129.662C83.7675 129.996 84.0422 130.331 84.3418 130.652C84.6415 130.95 84.9661 131.271 85.3406 131.593C85.7026 131.927 86.0397 132.274 86.3394 132.633C86.639 133.004 86.8887 133.425 87.0884 133.92C87.3132 134.391 87.438 134.935 87.438 135.554C87.438 136.681 87.1633 137.535 86.639 138.129C86.1022 138.698 85.3031 138.971 84.242 138.971C83.1683 138.971 82.3693 138.698 81.8449 138.129C81.3081 137.535 81.0459 136.681 81.0459 135.554V134.762H83.0934V135.703C83.0934 136.198 83.1932 136.545 83.393 136.743C83.5928 136.941 83.8549 137.04 84.192 137.04C84.5166 137.04 84.7913 136.941 84.991 136.743C85.1908 136.545 85.2907 136.198 85.2907 135.703C85.2907 135.245 85.1908 134.849 84.991 134.515C84.7913 134.156 84.5166 133.821 84.192 133.524C83.8924 133.202 83.5553 132.881 83.1932 132.584C82.8187 132.262 82.4941 131.915 82.1945 131.544C81.8949 131.148 81.6202 130.727 81.3955 130.256C81.1957 129.761 81.0958 129.204 81.0958 128.573Z" fill="#076831"/>
</g>
<mask id="mask12_245_846" style="mask-type:luminance" maskUnits="userSpaceOnUse" x="86" y="124" width="10" height="16">
<path d="M86.1104 124.26H95.6985V139.473H86.1104V124.26Z" fill="white"/>
</mask>
<g mask="url(#mask12_245_846)">
<path d="M88.0361 125.302H94.6779V127.233H92.4307V138.819H90.2834V127.233H88.0361V125.302Z" fill="#076831"/>
</g>
<mask id="mask13_245_846" style="mask-type:luminance" maskUnits="userSpaceOnUse" x="92" y="124" width="11" height="16">
<path d="M92.5029 124.261H102.091V139.474H92.5029V124.261Z" fill="white"/>
</mask>
<g mask="url(#mask13_245_846)">
<path d="M97.5761 135.703C97.5761 136.198 97.6759 136.545 97.8757 136.743C98.0754 136.941 98.3376 137.04 98.6747 137.04C98.9993 137.04 99.274 136.941 99.4737 136.743C99.6735 136.545 99.7733 136.198 99.7733 135.703V128.424C99.7733 127.929 99.6735 127.583 99.4737 127.385C99.274 127.187 98.9993 127.088 98.6747 127.088C98.3376 127.088 98.0754 127.187 97.8757 127.385C97.6759 127.583 97.5761 127.929 97.5761 128.424V135.703ZM95.4287 128.573C95.4287 127.459 95.7034 126.617 96.2777 126.048C96.8395 125.454 97.6385 125.156 98.6747 125.156C99.7359 125.156 100.535 125.454 101.072 126.048C101.634 126.617 101.921 127.459 101.921 128.573V135.554C101.921 136.681 101.634 137.535 101.072 138.129C100.535 138.698 99.7359 138.971 98.6747 138.971C97.6385 138.971 96.8395 138.698 96.2777 138.129C95.7034 137.535 95.4287 136.681 95.4287 135.554V128.573Z" fill="#076831"/>
</g>
<mask id="mask14_245_846" style="mask-type:luminance" maskUnits="userSpaceOnUse" x="102" y="124" width="10" height="16">
<path d="M102.09 124.26H111.678V139.473H102.09V124.26Z" fill="white"/>
</mask>
<g mask="url(#mask14_245_846)">
<path d="M106.498 125.302C107.559 125.302 108.358 125.586 108.895 126.143C109.419 126.713 109.694 127.53 109.694 128.619V130.402C109.694 131.491 109.419 132.32 108.895 132.877C108.358 133.447 107.559 133.719 106.498 133.719H105.449V138.819H103.352V125.302H106.498ZM105.449 127.233V131.788H106.498C106.822 131.788 107.072 131.714 107.247 131.54C107.447 131.38 107.546 131.045 107.546 130.55V128.52C107.546 128.025 107.447 127.703 107.247 127.53C107.072 127.332 106.822 127.233 106.498 127.233H105.449Z" fill="#076831"/>
</g>
<path d="M111.193 136.782V138.812H109.146V136.782H111.193Z" fill="#076831"/>
<mask id="mask15_245_846" style="mask-type:luminance" maskUnits="userSpaceOnUse" x="114" y="124" width="11" height="16">
<path d="M114.874 124.26H124.462V139.473H114.874V124.26Z" fill="white"/>
</mask>
<g mask="url(#mask15_245_846)">
<path d="M115.489 128.573C115.489 127.459 115.752 126.617 116.288 126.048C116.813 125.454 117.599 125.156 118.636 125.156C119.697 125.156 120.483 125.454 120.983 126.048C121.507 126.617 121.782 127.459 121.782 128.573V128.969H119.784V128.424C119.784 127.929 119.684 127.583 119.484 127.385C119.31 127.187 119.047 127.088 118.685 127.088C118.348 127.088 118.086 127.187 117.886 127.385C117.712 127.583 117.637 127.929 117.637 128.424C117.637 128.895 117.737 129.303 117.936 129.662C118.161 129.996 118.436 130.331 118.735 130.652C119.035 130.95 119.36 131.271 119.734 131.593C120.096 131.927 120.433 132.274 120.733 132.633C121.033 133.004 121.282 133.425 121.482 133.92C121.707 134.391 121.832 134.935 121.832 135.554C121.832 136.681 121.557 137.535 121.033 138.129C120.496 138.698 119.697 138.971 118.636 138.971C117.562 138.971 116.763 138.698 116.238 138.129C115.702 137.535 115.439 136.681 115.439 135.554V134.762H117.487V135.703C117.487 136.198 117.587 136.545 117.787 136.743C117.986 136.941 118.248 137.04 118.586 137.04C118.91 137.04 119.185 136.941 119.385 136.743C119.584 136.545 119.684 136.198 119.684 135.703C119.684 135.245 119.584 134.849 119.385 134.515C119.185 134.156 118.91 133.821 118.586 133.524C118.286 133.202 117.949 132.881 117.587 132.584C117.212 132.262 116.888 131.915 116.588 131.544C116.288 131.148 116.014 130.727 115.789 130.256C115.589 129.761 115.489 129.204 115.489 128.573Z" fill="#076831"/>
</g>
<mask id="mask16_245_846" style="mask-type:luminance" maskUnits="userSpaceOnUse" x="121" y="124" width="10" height="16">
<path d="M121.274 124.261H130.863V139.474H121.274V124.261Z" fill="white"/>
</mask>
<g mask="url(#mask16_245_846)">
<path d="M125.187 138.819H123.09V125.302H125.187V131.095H127.634V125.302H129.832V138.819H127.634V133.026H125.187V138.819Z" fill="#076831"/>
</g>
<mask id="mask17_245_846" style="mask-type:luminance" maskUnits="userSpaceOnUse" x="130" y="124" width="11" height="16">
<path d="M130.854 124.26H140.442V139.473H130.854V124.26Z" fill="white"/>
</mask>
<g mask="url(#mask17_245_846)">
<path d="M133.349 135.703C133.349 136.198 133.448 136.545 133.648 136.743C133.848 136.941 134.11 137.04 134.447 137.04C134.772 137.04 135.046 136.941 135.246 136.743C135.446 136.545 135.546 136.198 135.546 135.703V128.424C135.546 127.929 135.446 127.583 135.246 127.385C135.046 127.187 134.772 127.088 134.447 127.088C134.11 127.088 133.848 127.187 133.648 127.385C133.448 127.583 133.349 127.929 133.349 128.424V135.703ZM131.201 128.573C131.201 127.459 131.476 126.617 132.05 126.048C132.612 125.454 133.411 125.156 134.447 125.156C135.508 125.156 136.307 125.454 136.844 126.048C137.406 126.617 137.693 127.459 137.693 128.573V135.554C137.693 136.681 137.406 137.535 136.844 138.129C136.307 138.698 135.508 138.971 134.447 138.971C133.411 138.971 132.612 138.698 132.05 138.129C131.476 137.535 131.201 136.681 131.201 135.554V128.573Z" fill="#076831"/>
</g>
<mask id="mask18_245_846" style="mask-type:luminance" maskUnits="userSpaceOnUse" x="137" y="124" width="10" height="16">
<path d="M137.251 124.26H146.839V139.473H137.251V124.26Z" fill="white"/>
</mask>
<g mask="url(#mask18_245_846)">
<path d="M142.276 125.302C143.337 125.302 144.136 125.586 144.673 126.143C145.197 126.713 145.472 127.53 145.472 128.619V130.402C145.472 131.491 145.197 132.32 144.673 132.877C144.136 133.447 143.337 133.719 142.276 133.719H141.227V138.819H139.13V125.302H142.276ZM141.227 127.233V131.788H142.276C142.601 131.788 142.85 131.714 143.025 131.54C143.225 131.38 143.325 131.045 143.325 130.55V128.52C143.325 128.025 143.225 127.703 143.025 127.53C142.85 127.332 142.601 127.233 142.276 127.233H141.227Z" fill="#076831"/>
</g>
<mask id="mask19_245_846" style="mask-type:luminance" maskUnits="userSpaceOnUse" x="143" y="136" width="7" height="4">
<path d="M143.643 136.298H149.398V139.467H143.643V136.298Z" fill="white"/>
</mask>
<g mask="url(#mask19_245_846)">
<path d="M146.971 136.781V138.811H144.924V136.781H146.971Z" fill="#076831"/>
</g>
</g>
</svg>
