<svg width="96" height="96" viewBox="0 0 96 96" fill="none" xmlns="http://www.w3.org/2000/svg">
<g filter="url(#filter0_d_309_732)">
<rect x="15" y="5" width="66" height="66" rx="33" fill="#132D17" fill-opacity="0.23" shape-rendering="crispEdges"/>
<path d="M30 56H34M34 56H62M34 56V32.656M66 56H62M62 56V32.656M62 32.656C61.3539 33.0292 60.6163 33.2142 59.8706 33.1901C59.1249 33.1661 58.4007 32.934 57.78 32.52L54 30L50.22 32.52C49.5627 32.9586 48.7902 33.1926 48 33.1926C47.2098 33.1926 46.4373 32.9586 45.78 32.52L42 30L38.22 32.52C37.5993 32.934 36.8751 33.1661 36.1294 33.1901C35.3837 33.2142 34.6461 33.0292 34 32.656C33.9252 32.6131 33.8518 32.5677 33.78 32.52L32.7 31.8C31.9365 31.2907 31.3714 30.5344 31.0993 29.6579C30.8273 28.7814 30.865 27.838 31.206 26.986L32.994 22.514C33.291 21.7718 33.8035 21.1356 34.4655 20.6875C35.1275 20.2394 35.9086 19.9999 36.708 20H59.292C60.0914 19.9999 60.8725 20.2394 61.5345 20.6875C62.1965 21.1356 62.709 21.7718 63.006 22.514L64.794 26.986C65.135 27.838 65.1727 28.7814 64.9007 29.6579C64.6286 30.5344 64.0635 31.2907 63.3 31.8L62.22 32.52C62.1482 32.5677 62.0748 32.6131 62 32.656Z" stroke="white" stroke-width="5" stroke-linecap="round" stroke-linejoin="round"/>
<path d="M52 56V46C52 44.9391 51.5786 43.9217 50.8284 43.1716C50.0783 42.4214 49.0609 42 48 42C46.9391 42 45.9217 42.4214 45.1716 43.1716C44.4214 43.9217 44 44.9391 44 46V56" stroke="white" stroke-width="5"/>
</g>
<defs>
<filter id="filter0_d_309_732" x="0" y="0" width="96" height="96" filterUnits="userSpaceOnUse" color-interpolation-filters="sRGB">
<feFlood flood-opacity="0" result="BackgroundImageFix"/>
<feColorMatrix in="SourceAlpha" type="matrix" values="0 0 0 0 0 0 0 0 0 0 0 0 0 0 0 0 0 0 127 0" result="hardAlpha"/>
<feOffset dy="10"/>
<feGaussianBlur stdDeviation="7.5"/>
<feComposite in2="hardAlpha" operator="out"/>
<feColorMatrix type="matrix" values="0 0 0 0 0.961538 0 0 0 0 0.961538 0 0 0 0 0.961538 0 0 0 0.65 0"/>
<feBlend mode="normal" in2="BackgroundImageFix" result="effect1_dropShadow_309_732"/>
<feBlend mode="normal" in="SourceGraphic" in2="effect1_dropShadow_309_732" result="shape"/>
</filter>
</defs>
</svg>
