<svg width="96" height="96" viewBox="0 0 96 96" fill="none" xmlns="http://www.w3.org/2000/svg">
<g filter="url(#filter0_d_309_725)">
<rect x="15" y="5" width="66" height="66" rx="33" fill="#132D17" fill-opacity="0.23" shape-rendering="crispEdges"/>
<path d="M40.7679 22C39.2778 22.0059 37.8505 22.5978 36.7969 23.6467C35.7433 24.6956 35.1488 26.1166 35.1429 27.6C35.1429 30.6752 37.6789 33.2 40.7679 33.2C43.8568 33.2 46.3929 30.6752 46.3929 27.6C46.3929 24.5248 43.8568 22 40.7679 22ZM55.2321 22C53.7421 22.0059 52.3148 22.5978 51.2612 23.6467C50.2076 24.6956 49.6131 26.1166 49.6071 27.6C49.6071 30.6752 52.1432 33.2 55.2321 33.2C58.3211 33.2 60.8571 30.6752 60.8571 27.6C60.8571 24.5248 58.3211 22 55.2321 22ZM40.7679 25.2C42.1179 25.2 43.1786 26.256 43.1786 27.6C43.1786 28.944 42.1179 30 40.7679 30C39.4179 30 38.3571 28.944 38.3571 27.6C38.3571 26.256 39.4179 25.2 40.7679 25.2ZM55.2321 25.2C56.5821 25.2 57.6429 26.256 57.6429 27.6C57.6429 28.944 56.5821 30 55.2321 30C53.8821 30 52.8214 28.944 52.8214 27.6C52.8214 26.256 53.8821 25.2 55.2321 25.2ZM33.5357 31.6C30 31.6 27.1071 34.48 27.1071 38C27.1071 39.7808 27.8737 41.3872 29.0662 42.5504C27.9727 43.2857 27.0762 44.2759 26.4546 45.4348C25.8331 46.5937 25.5054 47.8863 25.5 49.2H28.7143C28.7143 46.5312 30.855 44.4 33.5357 44.4C36.2164 44.4 38.3571 46.5312 38.3571 49.2H41.5714C41.566 47.8863 41.2383 46.5937 40.6168 45.4348C39.9953 44.2759 39.0987 43.2857 38.0052 42.5504C39.1977 41.3872 39.9643 39.7824 39.9643 38C39.9643 34.48 37.0714 31.6 33.5357 31.6ZM41.5714 49.2C40.567 50.5376 39.9643 52.2192 39.9643 54H43.1786C43.1786 51.3312 45.3193 49.2 48 49.2C50.6807 49.2 52.8214 51.3312 52.8214 54H56.0357C56.0334 52.2694 55.4697 50.5858 54.4286 49.2C53.8821 48.4752 53.2232 47.856 52.4695 47.3504C53.662 46.1872 54.4286 44.5824 54.4286 42.8C54.4286 39.28 51.5357 36.4 48 36.4C44.4643 36.4 41.5714 39.28 41.5714 42.8C41.5714 44.5808 42.338 46.1872 43.5305 47.3504C42.7774 47.8525 42.115 48.4779 41.5714 49.2ZM54.4286 49.2H57.6429C57.6429 46.5312 59.7836 44.4 62.4643 44.4C65.145 44.4 67.2857 46.5312 67.2857 49.2H70.5C70.4946 47.8863 70.1669 46.5937 69.5454 45.4348C68.9238 44.2759 68.0273 43.2857 66.9338 42.5504C68.1262 41.3872 68.8929 39.7824 68.8929 38C68.8929 34.48 66 31.6 62.4643 31.6C58.9286 31.6 56.0357 34.48 56.0357 38C56.0357 39.7808 56.8023 41.3872 57.9948 42.5504C56.9013 43.2857 56.0047 44.2759 55.3832 45.4348C54.7617 46.5937 54.434 47.8863 54.4286 49.2ZM33.5357 34.8C35.3309 34.8 36.75 36.2128 36.75 38C36.75 39.7872 35.3309 41.2 33.5357 41.2C31.7405 41.2 30.3214 39.7872 30.3214 38C30.3214 36.2128 31.7405 34.8 33.5357 34.8ZM62.4643 34.8C64.2595 34.8 65.6786 36.2128 65.6786 38C65.6786 39.7872 64.2595 41.2 62.4643 41.2C60.6691 41.2 59.25 39.7872 59.25 38C59.25 36.2128 60.6691 34.8 62.4643 34.8ZM48 39.6C49.7952 39.6 51.2143 41.0128 51.2143 42.8C51.2143 44.5872 49.7952 46 48 46C46.2048 46 44.7857 44.5872 44.7857 42.8C44.7857 41.0128 46.2048 39.6 48 39.6Z" fill="white"/>
</g>
<defs>
<filter id="filter0_d_309_725" x="0" y="0" width="96" height="96" filterUnits="userSpaceOnUse" color-interpolation-filters="sRGB">
<feFlood flood-opacity="0" result="BackgroundImageFix"/>
<feColorMatrix in="SourceAlpha" type="matrix" values="0 0 0 0 0 0 0 0 0 0 0 0 0 0 0 0 0 0 127 0" result="hardAlpha"/>
<feOffset dy="10"/>
<feGaussianBlur stdDeviation="7.5"/>
<feComposite in2="hardAlpha" operator="out"/>
<feColorMatrix type="matrix" values="0 0 0 0 0.961538 0 0 0 0 0.961538 0 0 0 0 0.961538 0 0 0 0.65 0"/>
<feBlend mode="normal" in2="BackgroundImageFix" result="effect1_dropShadow_309_725"/>
<feBlend mode="normal" in="SourceGraphic" in2="effect1_dropShadow_309_725" result="shape"/>
</filter>
</defs>
</svg>
