<svg width="96" height="96" viewBox="0 0 96 96" fill="none" xmlns="http://www.w3.org/2000/svg">
<g filter="url(#filter0_d_309_744)">
<rect x="15" y="5" width="66" height="66" rx="33" fill="#132D17" fill-opacity="0.22" shape-rendering="crispEdges"/>
<g clip-path="url(#clip0_309_744)">
<path d="M58.6752 38C58.6698 36.3192 58.4897 34.6435 58.1377 33H62.6377C62.4071 32.314 62.1272 31.6456 61.8002 31H57.6127C56.8259 28.3699 55.6049 25.8899 54.0002 23.6625C52.9752 23.2315 51.9064 22.913 50.8127 22.7125C53.0116 25.0733 54.6707 27.8841 55.6752 30.95H48.9377V22.5H47.0627V30.9625H40.3252C41.3317 27.8911 42.9953 25.0758 45.2002 22.7125C44.1112 22.9098 43.0467 23.2241 42.0252 23.65C40.4141 25.868 39.1847 28.3395 38.3877 30.9625H34.1752C33.8422 31.6199 33.5581 32.3009 33.3252 33H37.8627C37.5107 34.6435 37.3306 36.3192 37.3252 38C37.329 39.8385 37.5386 41.6707 37.9502 43.4625H33.5252C33.7824 44.1637 34.0916 44.8448 34.4502 45.5H38.4877C39.2526 47.8949 40.3871 50.1555 41.8502 52.2C42.8977 52.6491 43.992 52.9803 45.1127 53.1875C43.0723 50.9624 41.5033 48.3474 40.5002 45.5H47.0752V53.425H48.9502V45.5H55.5002C54.4933 48.3485 52.9201 50.9635 50.8752 53.1875C52.0012 52.9731 53.0997 52.6335 54.1502 52.175C55.611 50.1382 56.7454 47.8862 57.5127 45.5H61.5127C61.8696 44.8569 62.1788 44.1884 62.4377 43.5H58.0002C58.4314 41.6979 58.6578 39.8529 58.6752 38ZM47.0627 43.4625H39.8877C39.0081 40.0222 38.9696 36.4208 39.7752 32.9625H47.0627V43.4625ZM56.1127 43.4625H48.9377V33H56.2252C56.5844 34.6422 56.7605 36.3191 56.7502 38C56.7619 39.84 56.5478 41.6746 56.1127 43.4625Z" fill="white"/>
<path d="M48 18C44.0444 18 40.1776 19.173 36.8886 21.3706C33.5996 23.5682 31.0362 26.6918 29.5224 30.3463C28.0087 34.0009 27.6126 38.0222 28.3843 41.9018C29.156 45.7814 31.0608 49.3451 33.8579 52.1421C36.6549 54.9392 40.2186 56.844 44.0982 57.6157C47.9778 58.3874 51.9992 57.9913 55.6537 56.4776C59.3082 54.9638 62.4318 52.4004 64.6294 49.1114C66.827 45.8224 68 41.9556 68 38C68 32.6957 65.8929 27.6086 62.1421 23.8579C58.3914 20.1071 53.3043 18 48 18ZM48 55.5C44.5388 55.5 41.1554 54.4736 38.2775 52.5507C35.3997 50.6278 33.1567 47.8947 31.8321 44.697C30.5076 41.4993 30.161 37.9806 30.8363 34.5859C31.5115 31.1913 33.1782 28.073 35.6256 25.6256C38.0731 23.1782 41.1913 21.5115 44.5859 20.8363C47.9806 20.161 51.4993 20.5076 54.697 21.8321C57.8947 23.1566 60.6278 25.3997 62.5507 28.2775C64.4737 31.1554 65.5 34.5388 65.5 38C65.5 42.6413 63.6563 47.0925 60.3744 50.3744C57.0925 53.6563 52.6413 55.5 48 55.5Z" fill="white"/>
</g>
</g>
<defs>
<filter id="filter0_d_309_744" x="0" y="0" width="96" height="96" filterUnits="userSpaceOnUse" color-interpolation-filters="sRGB">
<feFlood flood-opacity="0" result="BackgroundImageFix"/>
<feColorMatrix in="SourceAlpha" type="matrix" values="0 0 0 0 0 0 0 0 0 0 0 0 0 0 0 0 0 0 127 0" result="hardAlpha"/>
<feOffset dy="10"/>
<feGaussianBlur stdDeviation="7.5"/>
<feComposite in2="hardAlpha" operator="out"/>
<feColorMatrix type="matrix" values="0 0 0 0 0.961538 0 0 0 0 0.961538 0 0 0 0 0.961538 0 0 0 0.65 0"/>
<feBlend mode="normal" in2="BackgroundImageFix" result="effect1_dropShadow_309_744"/>
<feBlend mode="normal" in="SourceGraphic" in2="effect1_dropShadow_309_744" result="shape"/>
</filter>
<clipPath id="clip0_309_744">
<rect width="45" height="45" fill="white" transform="translate(25.5 15.5)"/>
</clipPath>
</defs>
</svg>
